<svg xmlns="http://www.w3.org/2000/svg" xmlns:xlink="http://www.w3.org/1999/xlink" width="1920" zoomAndPan="magnify" viewBox="0 0 1440 809.999993" height="1080" preserveAspectRatio="xMidYMid meet" version="1.0"><defs><filter x="0%" y="0%" width="100%" height="100%" id="83c9441695"><feColorMatrix values="0 0 0 0 1 0 0 0 0 1 0 0 0 0 1 0 0 0 1 0" color-interpolation-filters="sRGB"/></filter><mask id="75d8835072"><g filter="url(#83c9441695)"><rect x="-144" width="1728" fill="#000000" y="-80.999999" height="971.999992" fill-opacity="0.4"/></g></mask><clipPath id="c4e60a8601"><path d="M 61 0 L 64 0 L 64 809.9375 L 61 809.9375 Z M 61 0 " clip-rule="nonzero"/></clipPath><clipPath id="726f909ea6"><path d="M 123 0 L 126 0 L 126 809.9375 L 123 809.9375 Z M 123 0 " clip-rule="nonzero"/></clipPath><clipPath id="a94d79a84d"><path d="M 185.511719 0 L 189 0 L 189 809.9375 L 185.511719 809.9375 Z M 185.511719 0 " clip-rule="nonzero"/></clipPath><clipPath id="883e3ebd6b"><path d="M 248.042969 0 L 251 0 L 251 809.9375 L 248.042969 809.9375 Z M 248.042969 0 " clip-rule="nonzero"/></clipPath><clipPath id="60e1929043"><path d="M 310 0 L 312.660156 0 L 312.660156 809.9375 L 310 809.9375 Z M 310 0 " clip-rule="nonzero"/></clipPath><clipPath id="3bc367c770"><path d="M 372 0 L 375 0 L 375 809.9375 L 372 809.9375 Z M 372 0 " clip-rule="nonzero"/></clipPath><clipPath id="d8cccb5041"><path d="M 434 0 L 437.726562 0 L 437.726562 809.9375 L 434 809.9375 Z M 434 0 " clip-rule="nonzero"/></clipPath><clipPath id="d924ebb083"><path d="M 497 0 L 500 0 L 500 809.9375 L 497 809.9375 Z M 497 0 " clip-rule="nonzero"/></clipPath><clipPath id="6c891e5170"><path d="M 559 0 L 562 0 L 562 809.9375 L 559 809.9375 Z M 559 0 " clip-rule="nonzero"/></clipPath><clipPath id="51ab093551"><path d="M 621.152344 0 L 625 0 L 625 809.9375 L 621.152344 809.9375 Z M 621.152344 0 " clip-rule="nonzero"/></clipPath><clipPath id="dcfcc4821f"><path d="M 684 0 L 687 0 L 687 809.9375 L 684 809.9375 Z M 684 0 " clip-rule="nonzero"/></clipPath><clipPath id="2ffaa73285"><path d="M 0 746.21875 L 720 746.21875 L 720 749 L 0 749 Z M 0 746.21875 " clip-rule="nonzero"/></clipPath><clipPath id="4a4b8b5d27"><path d="M 0 684 L 720 684 L 720 687 L 0 687 Z M 0 684 " clip-rule="nonzero"/></clipPath><clipPath id="f1235167e6"><path d="M 0 621.152344 L 720 621.152344 L 720 625 L 0 625 Z M 0 621.152344 " clip-rule="nonzero"/></clipPath><clipPath id="b82167568b"><path d="M 0 559 L 720 559 L 720 562 L 0 562 Z M 0 559 " clip-rule="nonzero"/></clipPath><clipPath id="3c670b661f"><path d="M 0 497 L 720 497 L 720 500 L 0 500 Z M 0 497 " clip-rule="nonzero"/></clipPath><clipPath id="df00b5816b"><path d="M 0 434 L 720 434 L 720 437.726562 L 0 437.726562 Z M 0 434 " clip-rule="nonzero"/></clipPath><clipPath id="621a119381"><path d="M 0 372 L 720 372 L 720 375 L 0 375 Z M 0 372 " clip-rule="nonzero"/></clipPath><clipPath id="68e689c204"><path d="M 0 310 L 720 310 L 720 312.660156 L 0 312.660156 Z M 0 310 " clip-rule="nonzero"/></clipPath><clipPath id="339aeac199"><path d="M 0 248.042969 L 720 248.042969 L 720 251 L 0 251 Z M 0 248.042969 " clip-rule="nonzero"/></clipPath><clipPath id="2afda8e7f3"><path d="M 0 185.511719 L 720 185.511719 L 720 189 L 0 189 Z M 0 185.511719 " clip-rule="nonzero"/></clipPath><clipPath id="0996d8b064"><path d="M 0 123 L 720 123 L 720 126 L 0 126 Z M 0 123 " clip-rule="nonzero"/></clipPath><clipPath id="b3223d9137"><path d="M 0 61 L 720 61 L 720 64 L 0 64 Z M 0 61 " clip-rule="nonzero"/></clipPath><clipPath id="05140a5721"><rect x="0" width="720" y="0" height="810"/></clipPath><clipPath id="73b2394d8e"><path d="M 1182 268 L 1440 268 L 1440 734 L 1182 734 Z M 1182 268 " clip-rule="nonzero"/></clipPath><clipPath id="c93bbb71e0"><path d="M 1468.40625 240.710938 L 1614.046875 565.007812 L 1213.125 745.066406 L 1067.480469 420.769531 Z M 1468.40625 240.710938 " clip-rule="nonzero"/></clipPath><clipPath id="584c7b53e5"><path d="M 1468.40625 240.710938 L 1614.046875 565.007812 L 1213.125 745.066406 L 1067.480469 420.769531 Z M 1468.40625 240.710938 " clip-rule="nonzero"/></clipPath><clipPath id="2d235d6a69"><path d="M 0 116 L 327 116 L 327 494 L 0 494 Z M 0 116 " clip-rule="nonzero"/></clipPath><clipPath id="6cc4f73f45"><path d="M -88.875 501.609375 L -117.21875 147.242188 L 320.882812 112.203125 L 349.226562 466.570312 Z M -88.875 501.609375 " clip-rule="nonzero"/></clipPath><clipPath id="504dbd4b06"><path d="M -88.875 501.609375 L -117.21875 147.242188 L 320.882812 112.203125 L 349.226562 466.570312 Z M -88.875 501.609375 " clip-rule="nonzero"/></clipPath></defs><rect x="-144" width="1728" fill="#ffffff" y="-80.999999" height="971.999992" fill-opacity="1"/><rect x="-144" width="1728" fill="#151f34" y="-80.999999" height="971.999992" fill-opacity="1"/><g mask="url(#75d8835072)"><g transform="matrix(1, 0, 0, 1, 720, 0.000000000000039746)"><g clip-path="url(#05140a5721)"><g clip-path="url(#c4e60a8601)"><path fill="#101828" d="M 63.4375 809.9375 L 61.171875 809.9375 L 61.171875 0 L 63.4375 0 L 63.4375 809.9375 " fill-opacity="1" fill-rule="nonzero"/></g><g clip-path="url(#726f909ea6)"><path fill="#101828" d="M 125.738281 809.9375 L 123.476562 809.9375 L 123.476562 0 L 125.738281 0 L 125.738281 809.9375 " fill-opacity="1" fill-rule="nonzero"/></g><g clip-path="url(#a94d79a84d)"><path fill="#101828" d="M 188.035156 809.9375 L 185.78125 809.9375 L 185.78125 0 L 188.035156 0 L 188.035156 809.9375 " fill-opacity="1" fill-rule="nonzero"/></g><g clip-path="url(#883e3ebd6b)"><path fill="#101828" d="M 250.339844 809.9375 L 248.078125 809.9375 L 248.078125 0 L 250.339844 0 L 250.339844 809.9375 " fill-opacity="1" fill-rule="nonzero"/></g><g clip-path="url(#60e1929043)"><path fill="#101828" d="M 312.644531 809.9375 L 310.382812 809.9375 L 310.382812 0 L 312.644531 0 L 312.644531 809.9375 " fill-opacity="1" fill-rule="nonzero"/></g><g clip-path="url(#3bc367c770)"><path fill="#101828" d="M 374.949219 809.9375 L 372.683594 809.9375 L 372.683594 0 L 374.949219 0 L 374.949219 809.9375 " fill-opacity="1" fill-rule="nonzero"/></g><g clip-path="url(#d8cccb5041)"><path fill="#101828" d="M 437.253906 809.9375 L 434.988281 809.9375 L 434.988281 0 L 437.253906 0 L 437.253906 809.9375 " fill-opacity="1" fill-rule="nonzero"/></g><g clip-path="url(#d924ebb083)"><path fill="#101828" d="M 499.558594 809.9375 L 497.292969 809.9375 L 497.292969 0 L 499.558594 0 L 499.558594 809.9375 " fill-opacity="1" fill-rule="nonzero"/></g><g clip-path="url(#6c891e5170)"><path fill="#101828" d="M 561.851562 809.9375 L 559.589844 809.9375 L 559.589844 0 L 561.851562 0 L 561.851562 809.9375 " fill-opacity="1" fill-rule="nonzero"/></g><g clip-path="url(#51ab093551)"><path fill="#101828" d="M 624.15625 809.9375 L 621.894531 809.9375 L 621.894531 0 L 624.15625 0 L 624.15625 809.9375 " fill-opacity="1" fill-rule="nonzero"/></g><g clip-path="url(#dcfcc4821f)"><path fill="#101828" d="M 686.460938 809.9375 L 684.199219 809.9375 L 684.199219 0 L 686.460938 0 L 686.460938 809.9375 " fill-opacity="1" fill-rule="nonzero"/></g><g clip-path="url(#2ffaa73285)"><path fill="#101828" d="M 809.9375 748.765625 L 0 748.765625 L 0 746.503906 L 809.9375 746.503906 L 809.9375 748.765625 " fill-opacity="1" fill-rule="nonzero"/></g><g clip-path="url(#4a4b8b5d27)"><path fill="#101828" d="M 809.9375 686.460938 L 0 686.460938 L 0 684.199219 L 809.9375 684.199219 L 809.9375 686.460938 " fill-opacity="1" fill-rule="nonzero"/></g><g clip-path="url(#f1235167e6)"><path fill="#101828" d="M 809.9375 624.15625 L 0 624.15625 L 0 621.894531 L 809.9375 621.894531 L 809.9375 624.15625 " fill-opacity="1" fill-rule="nonzero"/></g><g clip-path="url(#b82167568b)"><path fill="#101828" d="M 809.9375 561.851562 L 0 561.851562 L 0 559.589844 L 809.9375 559.589844 L 809.9375 561.851562 " fill-opacity="1" fill-rule="nonzero"/></g><g clip-path="url(#3c670b661f)"><path fill="#101828" d="M 809.9375 499.558594 L 0 499.558594 L 0 497.292969 L 809.9375 497.292969 L 809.9375 499.558594 " fill-opacity="1" fill-rule="nonzero"/></g><g clip-path="url(#df00b5816b)"><path fill="#101828" d="M 809.9375 437.253906 L 0 437.253906 L 0 434.988281 L 809.9375 434.988281 L 809.9375 437.253906 " fill-opacity="1" fill-rule="nonzero"/></g><g clip-path="url(#621a119381)"><path fill="#101828" d="M 809.9375 374.949219 L 0 374.949219 L 0 372.683594 L 809.9375 372.683594 L 809.9375 374.949219 " fill-opacity="1" fill-rule="nonzero"/></g><g clip-path="url(#68e689c204)"><path fill="#101828" d="M 809.9375 312.644531 L 0 312.644531 L 0 310.382812 L 809.9375 310.382812 L 809.9375 312.644531 " fill-opacity="1" fill-rule="nonzero"/></g><g clip-path="url(#339aeac199)"><path fill="#101828" d="M 809.9375 250.339844 L 0 250.339844 L 0 248.078125 L 809.9375 248.078125 L 809.9375 250.339844 " fill-opacity="1" fill-rule="nonzero"/></g><g clip-path="url(#2afda8e7f3)"><path fill="#101828" d="M 809.9375 188.042969 L 0 188.042969 L 0 185.78125 L 809.9375 185.78125 L 809.9375 188.042969 " fill-opacity="1" fill-rule="nonzero"/></g><g clip-path="url(#0996d8b064)"><path fill="#101828" d="M 809.9375 125.738281 L 0 125.738281 L 0 123.476562 L 809.9375 123.476562 L 809.9375 125.738281 " fill-opacity="1" fill-rule="nonzero"/></g><g clip-path="url(#b3223d9137)"><path fill="#101828" d="M 809.9375 63.4375 L 0 63.4375 L 0 61.171875 L 809.9375 61.171875 L 809.9375 63.4375 " fill-opacity="1" fill-rule="nonzero"/></g></g></g></g><g clip-path="url(#73b2394d8e)"><g clip-path="url(#c93bbb71e0)"><g clip-path="url(#584c7b53e5)"><path fill="#d5f279" d="M 1438.609375 378.007812 C 1435.511719 378.226562 1431.019531 378.472656 1428.671875 378.277344 C 1415.382812 377.175781 1383.8125 369.703125 1361.789062 371.734375 C 1346.253906 373.160156 1334.449219 379.347656 1328.261719 388.878906 C 1322.648438 397.550781 1321.433594 407.097656 1323.25 416.671875 C 1325.128906 426.597656 1330.800781 436.625 1335.960938 444.097656 C 1342.742188 453.910156 1359.46875 471.75 1370.71875 488.980469 C 1373.699219 493.542969 1376.277344 498.015625 1377.832031 502.21875 L 1378.113281 502.882812 C 1374.320312 503.449219 1368.324219 504.289062 1365.613281 504.382812 C 1351.320312 504.953125 1322.867188 499.984375 1302.015625 502.265625 C 1288.238281 503.769531 1277.050781 508.476562 1270.207031 515.742188 C 1263.785156 522.566406 1261.191406 530.816406 1261.351562 539.585938 C 1261.484375 547.90625 1264.605469 556.898438 1267.492188 563.824219 C 1271.355469 573.09375 1278.449219 584.238281 1284.148438 595.691406 C 1287.480469 602.375 1290.894531 609.03125 1290.480469 615.289062 C 1289.144531 615.765625 1286.726562 616.582031 1285.179688 616.867188 C 1281.890625 617.472656 1278.625 617.734375 1275.871094 617.976562 C 1258.324219 619.546875 1225.667969 619.125 1206.375 628.644531 C 1196.15625 633.675781 1188.753906 641.066406 1184.992188 650.722656 C 1181.546875 659.5625 1180.867188 670.941406 1186.417969 685.480469 C 1188.785156 691.707031 1192.078125 697.597656 1195.710938 703.179688 C 1201.523438 712.113281 1208.40625 720.25 1215.710938 727.996094 C 1222.621094 735.3125 1234.183594 735.640625 1241.503906 728.730469 C 1248.835938 721.816406 1249.164062 710.25 1242.253906 702.929688 C 1236.453125 696.773438 1230.917969 690.371094 1226.300781 683.257812 C 1224.078125 679.859375 1221.972656 676.296875 1220.511719 672.476562 C 1219.148438 668.882812 1218.144531 666.1875 1218.996094 664 C 1219.417969 662.925781 1220.546875 662.449219 1221.625 661.855469 C 1223.746094 660.664062 1226.238281 659.800781 1228.894531 659.066406 C 1245.191406 654.609375 1266.667969 655.449219 1279.121094 654.332031 C 1287.625 653.582031 1299.199219 652.066406 1307.878906 647.554688 C 1317.292969 642.660156 1324.109375 634.949219 1326.199219 623.511719 C 1328.273438 612.078125 1325.691406 599.492188 1320.367188 587.035156 C 1314.675781 573.726562 1305.648438 560.460938 1301.179688 549.769531 C 1300.175781 547.359375 1298.804688 542.375 1298.1875 540.011719 C 1298.816406 539.824219 1299.539062 539.707031 1300.261719 539.523438 C 1304.152344 538.535156 1308.699219 538.199219 1313.507812 538.097656 C 1332.59375 537.734375 1354.941406 541.332031 1367.035156 540.863281 C 1374.0625 540.589844 1385.398438 540.019531 1394.109375 536.660156 C 1404.613281 532.625 1412.121094 525.21875 1414.582031 514.355469 C 1416.789062 504.585938 1414.230469 492.023438 1407.226562 478.957031 C 1396.304688 458.621094 1374.210938 435.238281 1365.992188 423.347656 C 1364.042969 420.523438 1361.828125 417.136719 1360.292969 413.511719 C 1359.824219 412.394531 1359.410156 411.265625 1359.167969 410.125 C 1359.105469 409.882812 1358.960938 409.632812 1358.882812 409.382812 C 1359.65625 409.097656 1360.839844 408.707031 1361.699219 408.542969 C 1364.980469 407.925781 1368.695312 407.777344 1372.605469 407.855469 C 1391.929688 408.207031 1415.035156 413.769531 1425.660156 414.644531 C 1433.925781 415.332031 1445.625 415.359375 1454.683594 411.9375 C 1464.570312 408.210938 1472.113281 401.265625 1475.132812 389.992188 C 1477.609375 380.6875 1475.527344 369 1468.914062 357.027344 C 1459.238281 339.53125 1439.210938 319.867188 1431.472656 310.105469 C 1430.375 308.714844 1429.089844 307.15625 1427.804688 305.457031 C 1428.496094 305.480469 1429.144531 305.519531 1429.75 305.597656 C 1440.113281 306.730469 1451.097656 309.925781 1455.371094 311.691406 L 1461.871094 314.402344 C 1466.699219 320.394531 1475.015625 322.890625 1482.585938 319.996094 C 1492.011719 316.398438 1496.722656 305.835938 1493.117188 296.433594 C 1491.527344 292.292969 1488.296875 287.984375 1483.328125 284.601562 C 1478.9375 281.621094 1472.394531 279.234375 1469.265625 277.933594 C 1460.636719 274.390625 1432.976562 266.902344 1415.421875 269.21875 C 1400.589844 271.199219 1391.019531 279.117188 1387.960938 290.691406 C 1385.910156 298.382812 1386.988281 306.453125 1390.460938 314.148438 C 1393.605469 321.117188 1398.9375 327.816406 1402.855469 332.761719 C 1408.988281 340.507812 1423.691406 354.828125 1433.398438 368.976562 C 1435.40625 371.898438 1437.167969 374.796875 1438.433594 377.578125 Z M 1438.609375 378.007812 " fill-opacity="1" fill-rule="evenodd"/></g></g></g><g clip-path="url(#2d235d6a69)"><g clip-path="url(#6cc4f73f45)"><g clip-path="url(#504dbd4b06)"><path fill="#d5f279" d="M -14.726562 382.285156 C -11.734375 383.117188 -7.421875 384.390625 -5.273438 385.363281 C 6.875 390.859375 34.105469 408.496094 55.53125 413.976562 C 70.648438 417.847656 83.84375 415.980469 92.871094 409.082031 C 101.066406 402.792969 105.417969 394.210938 106.921875 384.582031 C 108.480469 374.601562 106.503906 363.253906 104.152344 354.480469 C 101.058594 342.960938 91.289062 320.542969 86.476562 300.535156 C 85.199219 295.238281 84.273438 290.160156 84.21875 285.675781 L 84.175781 284.957031 C 87.9375 285.699219 93.867188 286.917969 96.453125 287.738281 C 110.109375 292 135.246094 306.230469 155.648438 311.082031 C 169.132812 314.289062 181.253906 313.609375 190.136719 309.0625 C 198.480469 304.789062 203.6875 297.890625 206.480469 289.574219 C 209.152344 281.691406 209.230469 272.175781 208.832031 264.679688 C 208.304688 254.648438 205.367188 241.773438 203.84375 229.070312 C 202.945312 221.660156 201.960938 214.242188 204.453125 208.484375 C 205.871094 208.488281 208.421875 208.527344 209.976562 208.78125 C 213.277344 209.3125 216.441406 210.160156 219.117188 210.859375 C 236.171875 215.269531 266.796875 226.625 288.160156 224.136719 C 299.476562 222.824219 308.929688 218.351562 315.714844 210.511719 C 321.929688 203.34375 326.386719 192.855469 326.039062 177.296875 C 325.898438 170.632812 324.773438 163.980469 323.226562 157.503906 C 320.75 147.136719 316.996094 137.160156 312.714844 127.414062 C 308.664062 118.199219 297.878906 114.011719 288.664062 118.0625 C 279.4375 122.117188 275.25 132.902344 279.300781 142.113281 C 282.699219 149.863281 285.761719 157.75 287.722656 166.003906 C 288.675781 169.949219 289.464844 174.011719 289.558594 178.101562 C 289.636719 181.945312 289.675781 184.820312 288.140625 186.59375 C 287.382812 187.464844 286.160156 187.535156 284.945312 187.730469 C 282.546875 188.140625 279.910156 188.121094 277.160156 187.921875 C 260.3125 186.648438 240.363281 178.648438 228.261719 175.519531 C 220 173.375 208.585938 170.914062 198.894531 172.253906 C 188.386719 173.703125 179.375 178.675781 173.566406 188.753906 C 167.773438 198.828125 165.984375 211.546875 166.820312 225.070312 C 167.714844 239.515625 171.761719 255.039062 172.382812 266.613281 C 172.519531 269.222656 172.136719 274.375 171.925781 276.808594 C 171.273438 276.773438 170.550781 276.644531 169.808594 276.574219 C 165.8125 276.199219 161.417969 274.988281 156.851562 273.46875 C 138.753906 267.40625 118.910156 256.515625 107.359375 252.898438 C 100.648438 250.800781 89.777344 247.527344 80.449219 247.769531 C 69.195312 248.046875 59.636719 252.5 53.671875 261.910156 C 48.316406 270.371094 46.507812 283.0625 48.722656 297.722656 C 52.183594 320.542969 65.148438 349.988281 68.898438 363.945312 C 69.785156 367.261719 70.738281 371.191406 70.964844 375.125 C 71.03125 376.335938 71.042969 377.539062 70.886719 378.691406 C 70.863281 378.941406 70.914062 379.226562 70.90625 379.488281 C 70.082031 379.496094 68.835938 379.464844 67.972656 379.332031 C 64.671875 378.8125 61.125 377.707031 57.46875 376.320312 C 39.382812 369.503906 19.484375 356.507812 9.769531 352.117188 C 2.214844 348.695312 -8.796875 344.742188 -18.480469 344.925781 C -29.042969 345.117188 -38.480469 349.128906 -45.105469 358.734375 C -50.566406 366.667969 -52.523438 378.375 -50.316406 391.875 C -47.074219 411.601562 -34.804688 436.847656 -30.792969 448.640625 C -30.226562 450.316406 -29.539062 452.21875 -28.898438 454.25 C -29.542969 453.996094 -30.140625 453.742188 -30.683594 453.464844 C -40.0625 448.917969 -49.339844 442.222656 -52.773438 439.125 L -57.988281 434.390625 C -60.523438 427.125 -67.519531 421.980469 -75.625 422.164062 C -85.707031 422.394531 -93.691406 430.761719 -93.453125 440.828125 C -93.34375 445.265625 -91.746094 450.40625 -88.203125 455.257812 C -85.066406 459.539062 -79.703125 463.988281 -77.191406 466.261719 C -70.25 472.492188 -46.714844 488.832031 -29.394531 492.542969 C -14.761719 495.65625 -3.085938 491.410156 3.675781 481.53125 C 8.191406 474.976562 9.882812 467.011719 9.195312 458.597656 C 8.570312 450.976562 5.796875 442.878906 3.769531 436.902344 C 0.589844 427.546875 -8.453125 409.121094 -12.847656 392.539062 C -13.757812 389.109375 -14.445312 385.792969 -14.703125 382.746094 Z M -14.726562 382.285156 " fill-opacity="1" fill-rule="evenodd"/></g></g></g></svg>